<?xml version="1.0" encoding="UTF-8" standalone="no"?>
<svg width="35px" height="42px" viewBox="0 0 35 42" version="1.1" xmlns="http://www.w3.org/2000/svg" xmlns:xlink="http://www.w3.org/1999/xlink">
    <!-- Generator: Sketch 40 (33762) - http://www.bohemiancoding.com/sketch -->
    <title>yoga</title>
    <desc>Created with Sketch.</desc>
    <defs></defs>
    <g id="Homepage" stroke="none" stroke-width="1" fill="none" fill-rule="evenodd">
        <g id="Desktop-HD" transform="translate(-440.000000, -2214.000000)" fill="#4499A5">
            <g id="yoga" transform="translate(440.000000, 2214.301188)">
                <g id="Capa_1" transform="translate(-0.000000, 0.000000)">
                    <g id="_x32_7_48_">
                        <g id="Group">
                            <path d="M17.3353964,13.1442351 C17.3424312,13.1442351 17.3495489,13.1437223 17.3566665,13.1437223 C17.3638669,13.1437223 17.3709017,13.1442351 17.3780194,13.1442351 C20.8924722,13.1442351 23.7411786,10.2018672 23.7411786,6.57198935 C23.7411786,2.94253891 20.8924722,0 17.3780194,0 C17.3709017,0 17.3638669,0.00051287571 17.3566665,0.00051287571 C17.3495489,0.00051287571 17.342514,0 17.3353964,0 C13.8208607,0 10.9722371,2.94253891 10.9722371,6.57198935 C10.9720716,10.2018672 13.8206952,13.1442351 17.3353964,13.1442351 L17.3353964,13.1442351 Z" id="Shape"></path>
                            <path d="M26.1418055,21.1985208 L23.8726892,15.4754262 C23.4408313,14.3864201 22.4123341,13.7371195 21.3369929,13.7615665 L17.2416258,13.7590022 L13.1467552,13.7590022 C12.0710002,13.7371195 11.0426685,14.3864201 10.6107278,15.4754262 L8.34152875,21.1985208 L1.16580123,26.5873059 C-0.0295464317,27.4850093 -0.294140108,29.2135714 0.575203643,30.4483197 C1.09884587,31.1918185 1.91472465,31.5869038 2.74185921,31.5869038 C3.28759918,31.5869038 3.83830494,31.4149194 4.31336522,31.0578725 L12.0719106,25.2321173 L11.8741895,27.3413186 L4.53831536,35.0206921 C3.52057735,36.1143996 3.23355487,37.7302145 3.80925509,39.1260057 C4.38487255,40.521626 5.7117308,41.427621 7.18061055,41.427621 L10.6871182,41.427621 C9.78351048,40.5829147 9.20731368,39.3225226 9.20731368,37.9150207 C9.20731368,35.3773117 11.0753599,33.3129015 13.3715398,33.3129015 L17.3655221,33.3129015 C18.6737587,33.3129015 19.7118564,34.4174648 19.7118564,34.4174648 L13.3715398,34.4174648 C11.6264795,34.4174648 10.2066783,35.9863516 10.2066783,37.9150207 C10.2066783,39.8436043 11.6264795,41.4124911 13.3715398,41.4124911 L19.5119007,41.4124911 C19.5807596,41.4073624 19.6509428,41.4071059 19.7188085,41.398729 L27.1412529,41.398729 C28.6101326,41.398729 29.9369081,40.4926485 30.5126083,39.0968573 C31.0882258,37.7013225 30.8012861,36.085593 29.7836308,34.9917146 L22.6075723,27.3027675 L22.4115064,25.2321173 L30.169969,31.0578725 C30.6448638,31.4150049 31.1958178,31.5869038 31.7413095,31.5869038 C32.5685269,31.5869038 33.3844056,31.1918185 33.9080479,30.4483197 C34.7774744,29.2135714 34.5129635,27.4850093 33.317533,26.5873059 L26.1418055,21.1985208 Z" id="Shape"></path>
                        </g>
                    </g>
                </g>
            </g>
        </g>
    </g>
</svg>